{"title":"Comedy Nights with Kapil - 5th April - Amitabh Bachchan &amp; Bo","uid":9923014,"size":484195495,"categoryP":"video","categoryS":"other","magnet":"?xt=urn:btih:41190f935d4a0612e4035a41e5146234ffdf6c9a&amp;dn=Comedy+Nights+with+Kapil+-+5th+April+-+Amitabh+Bachchan+%26amp%3B+Bo&amp;tr=udp%3A%2F%2Ftracker.openbittorrent.com%3A80&amp;tr=udp%3A%2F%2Fopen.demonii.com%3A1337&amp;tr=udp%3A%2F%2Ftracker.coppersurfer.tk%3A6969&amp;tr=udp%3A%2F%2Fexodus.desync.com%3A6969","seeders":0,"leechers":3,"uploader":"lazypirate..","files":1,"time":1397021534,"description":" &lt;a href=&quot;http://s27.postimg.org/yf4gltour/vlcsnap_2014_04_09_02h12m15s91.png&quot; rel=&quot;nofollow&quot; target=&quot;_NEW&quot;&gt;http://s27.postimg.org/yf4gltour/vlcsnap_2014_04_09_02h12m15s91.png&lt;/a&gt;\n\nGeneral\nComplete name : Comedy Nights with Kapil Amitabh &amp; Boman 5th April 480p HQ DOM.mp4\nFormat : MPEG-4\nFormat profile : Base Media\nCodec ID : isom\nFile size : 462 MiB\nDuration : 56mn 34s\nOverall bit rate : 1 141 Kbps\nWriting application : Lavf54.63.104\n\nVideo\nID : 1\nFormat : AVC\nFormat/Info : Advanced Video Codec\nFormat profile : &lt;a class=&quot;__cf_email__&quot; href=&quot;/cdn-cgi/l/email-protection&quot; data-cfemail=&quot;89c4e8e0e7c9c5baa7b9&quot;&gt;[email&amp;#160;protected]&lt;/a&gt;&lt;script cf-hash='f9e31' type=&quot;text/javascript&quot;&gt;\n/* &lt;![CDATA[ */!function(){try{var t=&quot;currentScript&quot;in document?document.currentScript:function(){for(var t=document.getElementsByTagName(&quot;script&quot;),e=t.length;e--;)if(t[e].getAttribute(&quot;cf-hash&quot;))return t[e]}();if(t&amp;&amp;t.previousSibling){var e,r,n,i,c=t.previousSibling,a=c.getAttribute(&quot;data-cfemail&quot;);if(a){for(e=&quot;&quot;,r=parseInt(a.substr(0,2),16),n=2;a.length-n;n+=2)i=parseInt(a.substr(n,2),16)^r,e+=String.fromCharCode(i);e=document.createTextNode(e),c.parentNode.replaceChild(e,c)}}}catch(u){}}();/* ]]&gt; */&lt;/script&gt;\nFormat settings, CABAC : Yes\nFormat settings, ReFrames : 3 frames\nCodec ID : avc1\nCodec ID/Info : Advanced Video Coding\nDuration : 56mn 34s\nBit rate : 1 010 Kbps\nWidth : 854 pixels\nHeight : 480 pixels\nDisplay aspect ratio : 16:9\nFrame rate mode : Constant\nFrame rate : 25.000 fps\nColor space : YUV\nChroma subsampling : 4:2:0\nBit depth : 8 bits\nScan type : Progressive\nBits/(Pixel*Frame) : 0.099\nStream size : 408 MiB (88%)\n\nAudio\nID : 2\nFormat : AAC\nFormat/Info : Advanced Audio Codec\nFormat profile : LC\nCodec ID : 40\nDuration : 56mn 34s\nBit rate mode : Constant\nBit rate : 126 Kbps\nChannel(s) : 2 channels\nChannel positions : Front: L R\nSampling rate : 44.1 KHz\nCompression mode : Lossy\nStream size : 50.8 MiB (11%)\n &lt;a href=&quot;\nhttp://s27.postimg.org/yf4gltour/vlcsnap_2014_04_09_02h12m15s91.png&quot; rel=&quot;nofollow&quot; target=&quot;_NEW&quot;&gt;\nhttp://s27.postimg.org/yf4gltour/vlcsnap_2014_04_09_02h12m15s91.png&lt;/a&gt; &lt;a href=&quot;\nhttp://s27.postimg.org/kb3jgbbbn/vlcsnap_2014_04_09_02h13m05s176.png&quot; rel=&quot;nofollow&quot; target=&quot;_NEW&quot;&gt;\nhttp://s27.postimg.org/kb3jgbbbn/vlcsnap_2014_04_09_02h13m05s176.png&lt;/a&gt; &lt;a href=&quot;\nhttp://s27.postimg.org/me9da8lqr/vlcsnap_2014_04_09_02h13m32s195.png&quot; rel=&quot;nofollow&quot; target=&quot;_NEW&quot;&gt;\nhttp://s27.postimg.org/me9da8lqr/vlcsnap_2014_04_09_02h13m32s195.png&lt;/a&gt; &lt;a href=&quot;\nhttp://s27.postimg.org/pg4qxxo9f/vlcsnap_2014_04_09_02h14m05s15.png&quot; rel=&quot;nofollow&quot; target=&quot;_NEW&quot;&gt;\nhttp://s27.postimg.org/pg4qxxo9f/vlcsnap_2014_04_09_02h14m05s15.png&lt;/a&gt; &lt;a href=&quot;\nhttp://s27.postimg.org/4e4rjlixf/vlcsnap_2014_04_09_02h14m38s84.png&quot; rel=&quot;nofollow&quot; target=&quot;_NEW&quot;&gt;\nhttp://s27.postimg.org/4e4rjlixf/vlcsnap_2014_04_09_02h14m38s84.png&lt;/a&gt; &lt;a href=&quot;\nhttp://s27.postimg.org/wi2ok4rv7/vlcsnap_2014_04_09_02h15m05s95.png&quot; rel=&quot;nofollow&quot; target=&quot;_NEW&quot;&gt;\nhttp://s27.postimg.org/wi2ok4rv7/vlcsnap_2014_04_09_02h15m05s95.png&lt;/a&gt; &lt;a href=&quot;\nhttp://s27.postimg.org/qeq5xc7wz/vlcsnap_2014_04_09_02h16m06s195.png&quot; rel=&quot;nofollow&quot; target=&quot;_NEW&quot;&gt;\nhttp://s27.postimg.org/qeq5xc7wz/vlcsnap_2014_04_09_02h16m06s195.png&lt;/a&gt;","torrent":{"xt":"urn:btih:41190f935d4a0612e4035a41e5146234ffdf6c9a","amp;dn":"Comedy+Nights+with+Kapil+-+5th+April+-+Amitabh+Bachchan+%26amp%3B+Bo","amp;tr":["udp%3A%2F%2Ftracker.openbittorrent.com%3A80","udp%3A%2F%2Fopen.demonii.com%3A1337","udp%3A%2F%2Ftracker.coppersurfer.tk%3A6969","udp%3A%2F%2Fexodus.desync.com%3A6969"],"infoHash":"41190f935d4a0612e4035a41e5146234ffdf6c9a","infoHashBuffer":{"type":"Buffer","data":[65,25,15,147,93,74,6,18,228,3,90,65,229,20,98,52,255,223,108,154]},"announce":[],"urlList":[]}}